<?xml version="1.0" encoding="UTF-8"?>
<!DOCTYPE svg PUBLIC "-//W3C//DTD SVG 1.1//EN" "http://www.w3.org/Graphics/SVG/1.1/DTD/svg11.dtd">
<svg xmlns="http://www.w3.org/2000/svg" version="1.1" width="583px" height="428px" style="shape-rendering:geometricPrecision; text-rendering:geometricPrecision; image-rendering:optimizeQuality; fill-rule:evenodd; clip-rule:evenodd" xmlns:xlink="http://www.w3.org/1999/xlink">
<g><path style="opacity:1" fill="#4a4a4a" d="M 395.5,127.5 C 341.5,127.5 287.5,127.5 233.5,127.5C 233.5,127.167 233.5,126.833 233.5,126.5C 285.763,125.338 338.096,125.172 390.5,126C 392.382,126.198 394.048,126.698 395.5,127.5 Z"/></g>
<g><path style="opacity:1" fill="#010101" d="M 233.5,127.5 C 287.5,127.5 341.5,127.5 395.5,127.5C 396.78,128.931 398.447,129.598 400.5,129.5C 404.463,132.154 408.463,134.82 412.5,137.5C 412.5,139.5 413.5,140.5 415.5,140.5C 415.738,142.404 416.738,143.738 418.5,144.5C 419.463,147.744 420.796,150.744 422.5,153.5C 423.429,170.81 423.762,188.143 423.5,205.5C 396.159,205.167 368.825,205.5 341.5,206.5C 341.957,207.298 342.624,207.631 343.5,207.5C 344.791,207.263 345.791,207.596 346.5,208.5C 351.555,212.188 357.221,214.522 363.5,215.5C 364.058,216.79 365.058,217.623 366.5,218C 377.087,222.464 387.754,226.63 398.5,230.5C 399.514,231.674 400.847,232.34 402.5,232.5C 403.492,232.328 404.158,232.662 404.5,233.5C 406.55,235.547 408.883,237.214 411.5,238.5C 411.894,240.71 413.227,242.043 415.5,242.5C 416.34,244.853 417.674,246.853 419.5,248.5C 419.415,251.649 420.415,254.316 422.5,256.5C 423.437,275.81 423.77,295.144 423.5,314.5C 422.233,319.966 420.567,325.299 418.5,330.5C 417.094,330.973 416.427,331.973 416.5,333.5C 414.738,334.262 413.738,335.596 413.5,337.5C 413.5,338.167 413.167,338.5 412.5,338.5C 410.596,338.738 409.262,339.738 408.5,341.5C 408.027,342.906 407.027,343.573 405.5,343.5C 403.847,343.66 402.514,344.326 401.5,345.5C 401.158,346.338 400.492,346.672 399.5,346.5C 397.214,346.595 395.214,347.262 393.5,348.5C 340.039,349.827 286.706,349.827 233.5,348.5C 230.417,346.975 227.084,345.975 223.5,345.5C 222.341,343.75 220.674,342.75 218.5,342.5C 214.805,338.474 211.138,334.474 207.5,330.5C 205.248,325.743 203.581,320.743 202.5,315.5C 202.5,300.5 202.5,285.5 202.5,270.5C 229.833,270.5 257.167,270.5 284.5,270.5C 284.715,268.821 284.048,267.821 282.5,267.5C 281.833,267.5 281.167,267.5 280.5,267.5C 280.167,267.5 279.833,267.5 279.5,267.5C 278.713,265.896 277.38,265.229 275.5,265.5C 273.815,263.182 271.481,262.182 268.5,262.5C 268.167,262.5 267.833,262.5 267.5,262.5C 266.713,260.896 265.38,260.229 263.5,260.5C 262.508,260.672 261.842,260.338 261.5,259.5C 260.365,257.787 258.698,257.12 256.5,257.5C 254.824,255.166 252.491,254.166 249.5,254.5C 247.824,252.166 245.491,251.166 242.5,251.5C 240.824,249.166 238.491,248.166 235.5,248.5C 231.839,245.171 227.506,243.171 222.5,242.5C 222.027,241.094 221.027,240.427 219.5,240.5C 218.508,240.672 217.842,240.338 217.5,239.5C 214.833,236.167 211.833,233.167 208.5,230.5C 207.662,230.158 207.328,229.492 207.5,228.5C 206.397,224.503 204.731,220.836 202.5,217.5C 201.71,216.391 201.21,215.058 201,213.5C 200.181,195.426 200.348,177.426 201.5,159.5C 203.736,154.68 205.736,149.68 207.5,144.5C 209.89,143.109 211.557,141.109 212.5,138.5C 212.5,137.833 212.833,137.5 213.5,137.5C 215.909,136.299 217.909,134.633 219.5,132.5C 223.981,130.45 228.648,128.783 233.5,127.5 Z"/></g>
<g><path style="opacity:1" fill="#818181" d="M 233.5,126.5 C 233.5,126.833 233.5,127.167 233.5,127.5C 228.648,128.783 223.981,130.45 219.5,132.5C 219.953,131.542 220.619,130.708 221.5,130C 225.447,128.516 229.447,127.35 233.5,126.5 Z"/></g>
<g><path style="opacity:1" fill="#787878" d="M 395.5,127.5 C 397.553,127.402 399.22,128.069 400.5,129.5C 398.447,129.598 396.78,128.931 395.5,127.5 Z"/></g>
<g><path style="opacity:1" fill="#939393" d="M 400.5,129.5 C 405.562,130.689 409.562,133.356 412.5,137.5C 408.463,134.82 404.463,132.154 400.5,129.5 Z"/></g>
<g><path style="opacity:1" fill="#979797" d="M 219.5,132.5 C 217.909,134.633 215.909,136.299 213.5,137.5C 214.638,134.914 216.638,133.247 219.5,132.5 Z"/></g>
<g><path style="opacity:1" fill="#727272" d="M 412.5,137.5 C 414.19,137.856 415.19,138.856 415.5,140.5C 413.5,140.5 412.5,139.5 412.5,137.5 Z"/></g>
<g><path style="opacity:1" fill="#818181" d="M 212.5,138.5 C 211.557,141.109 209.89,143.109 207.5,144.5C 208.473,141.865 210.14,139.865 212.5,138.5 Z"/></g>
<g><path style="opacity:1" fill="#9c9c9c" d="M 415.5,140.5 C 417.262,141.262 418.262,142.596 418.5,144.5C 416.738,143.738 415.738,142.404 415.5,140.5 Z"/></g>
<g><path style="opacity:1" fill="#ababab" d="M 418.5,144.5 C 421.165,146.835 422.498,149.835 422.5,153.5C 420.796,150.744 419.463,147.744 418.5,144.5 Z"/></g>
<g><path style="opacity:1" fill="#8b8b8b" d="M 207.5,144.5 C 205.736,149.68 203.736,154.68 201.5,159.5C 201.956,153.78 203.956,148.78 207.5,144.5 Z"/></g>
<g><path style="opacity:1" fill="#7e7e7e" d="M 422.5,153.5 C 423.6,155.277 424.434,157.277 425,159.5C 425.824,175.074 425.657,190.574 424.5,206C 397.33,206.168 370.33,206.668 343.5,207.5C 342.624,207.631 341.957,207.298 341.5,206.5C 368.825,205.5 396.159,205.167 423.5,205.5C 423.762,188.143 423.429,170.81 422.5,153.5 Z"/></g>
<g><path style="opacity:1" fill="#959595" d="M 346.5,208.5 C 347.873,208.343 349.207,208.51 350.5,209C 354.946,211.084 359.279,213.25 363.5,215.5C 357.221,214.522 351.555,212.188 346.5,208.5 Z"/></g>
<g><path style="opacity:1" fill="#919191" d="M 202.5,217.5 C 204.731,220.836 206.397,224.503 207.5,228.5C 204.504,225.503 202.837,221.836 202.5,217.5 Z"/></g>
<g><path style="opacity:1" fill="#a6a6a6" d="M 363.5,215.5 C 375.583,219.713 387.25,224.713 398.5,230.5C 387.754,226.63 377.087,222.464 366.5,218C 365.058,217.623 364.058,216.79 363.5,215.5 Z"/></g>
<g><path style="opacity:1" fill="#b7b7b7" d="M 398.5,230.5 C 400.38,230.229 401.713,230.896 402.5,232.5C 400.847,232.34 399.514,231.674 398.5,230.5 Z"/></g>
<g><path style="opacity:1" fill="#b1b1b1" d="M 208.5,230.5 C 211.833,233.167 214.833,236.167 217.5,239.5C 213.5,237.5 210.5,234.5 208.5,230.5 Z"/></g>
<g><path style="opacity:1" fill="#a7a7a7" d="M 404.5,233.5 C 407.674,234.01 410.008,235.677 411.5,238.5C 408.883,237.214 406.55,235.547 404.5,233.5 Z"/></g>
<g><path style="opacity:1" fill="#959595" d="M 411.5,238.5 C 413.341,239.402 414.674,240.736 415.5,242.5C 413.227,242.043 411.894,240.71 411.5,238.5 Z"/></g>
<g><path style="opacity:1" fill="#808080" d="M 219.5,240.5 C 221.027,240.427 222.027,241.094 222.5,242.5C 220.973,242.573 219.973,241.906 219.5,240.5 Z"/></g>
<g><path style="opacity:1" fill="#6c6c6c" d="M 222.5,242.5 C 227.506,243.171 231.839,245.171 235.5,248.5C 230.738,247.284 226.405,245.284 222.5,242.5 Z"/></g>
<g><path style="opacity:1" fill="#b3b3b3" d="M 415.5,242.5 C 417.822,243.802 419.155,245.802 419.5,248.5C 417.674,246.853 416.34,244.853 415.5,242.5 Z"/></g>
<g><path style="opacity:1" fill="#858585" d="M 235.5,248.5 C 238.491,248.166 240.824,249.166 242.5,251.5C 239.843,251.065 237.509,250.065 235.5,248.5 Z"/></g>
<g><path style="opacity:1" fill="#7e7e7e" d="M 242.5,251.5 C 245.491,251.166 247.824,252.166 249.5,254.5C 246.843,254.065 244.509,253.065 242.5,251.5 Z"/></g>
<g><path style="opacity:1" fill="#646464" d="M 419.5,248.5 C 421.585,250.684 422.585,253.351 422.5,256.5C 420.415,254.316 419.415,251.649 419.5,248.5 Z"/></g>
<g><path style="opacity:1" fill="#7e7e7e" d="M 249.5,254.5 C 252.491,254.166 254.824,255.166 256.5,257.5C 253.843,257.065 251.509,256.065 249.5,254.5 Z"/></g>
<g><path style="opacity:1" fill="#828282" d="M 256.5,257.5 C 258.698,257.12 260.365,257.787 261.5,259.5C 259.447,259.598 257.78,258.931 256.5,257.5 Z"/></g>
<g><path style="opacity:1" fill="#c1c1c1" d="M 263.5,260.5 C 265.38,260.229 266.713,260.896 267.5,262.5C 265.847,262.34 264.514,261.674 263.5,260.5 Z"/></g>
<g><path style="opacity:1" fill="#787878" d="M 268.5,262.5 C 271.481,262.182 273.815,263.182 275.5,265.5C 272.937,264.912 270.604,263.912 268.5,262.5 Z"/></g>
<g><path style="opacity:1" fill="#acacac" d="M 275.5,265.5 C 277.38,265.229 278.713,265.896 279.5,267.5C 277.847,267.34 276.514,266.674 275.5,265.5 Z"/></g>
<g><path style="opacity:1" fill="#adadad" d="M 280.5,267.5 C 281.167,267.5 281.833,267.5 282.5,267.5C 282.611,268.117 282.944,268.617 283.5,269C 256.169,269.5 228.835,269.667 201.5,269.5C 227.833,268.833 254.167,268.167 280.5,267.5 Z"/></g>
<g><path style="opacity:1" fill="#363636" d="M 282.5,267.5 C 284.048,267.821 284.715,268.821 284.5,270.5C 257.167,270.5 229.833,270.5 202.5,270.5C 202.5,285.5 202.5,300.5 202.5,315.5C 201.504,300.676 201.171,285.676 201.5,270.5C 201.5,270.167 201.5,269.833 201.5,269.5C 228.835,269.667 256.169,269.5 283.5,269C 282.944,268.617 282.611,268.117 282.5,267.5 Z"/></g>
<g><path style="opacity:1" fill="#828282" d="M 422.5,256.5 C 423.776,258.562 424.61,260.896 425,263.5C 425.791,280.532 425.624,297.532 424.5,314.5C 424.167,314.5 423.833,314.5 423.5,314.5C 423.77,295.144 423.437,275.81 422.5,256.5 Z"/></g>
<g><path style="opacity:1" fill="#bababa" d="M 201.5,270.5 C 201.171,285.676 201.504,300.676 202.5,315.5C 203.581,320.743 205.248,325.743 207.5,330.5C 206.542,330.047 205.708,329.381 205,328.5C 203.36,324.608 202.027,320.608 201,316.5C 200.172,300.994 200.339,285.661 201.5,270.5 Z"/></g>
<g><path style="opacity:1" fill="#8b8b8b" d="M 423.5,314.5 C 423.833,314.5 424.167,314.5 424.5,314.5C 423.983,318.222 423.15,321.888 422,325.5C 421.303,327.584 420.136,329.251 418.5,330.5C 420.567,325.299 422.233,319.966 423.5,314.5 Z"/></g>
<g><path style="opacity:1" fill="#959595" d="M 418.5,330.5 C 418.573,332.027 417.906,333.027 416.5,333.5C 416.427,331.973 417.094,330.973 418.5,330.5 Z"/></g>
<g><path style="opacity:1" fill="#969696" d="M 207.5,330.5 C 211.138,334.474 214.805,338.474 218.5,342.5C 213.408,339.744 209.742,335.744 207.5,330.5 Z"/></g>
<g><path style="opacity:1" fill="#acacac" d="M 416.5,333.5 C 416.262,335.404 415.262,336.738 413.5,337.5C 413.738,335.596 414.738,334.262 416.5,333.5 Z"/></g>
<g><path style="opacity:1" fill="#b2b2b2" d="M 412.5,338.5 C 411.738,340.262 410.404,341.262 408.5,341.5C 409.262,339.738 410.596,338.738 412.5,338.5 Z"/></g>
<g><path style="opacity:1" fill="#979797" d="M 218.5,342.5 C 220.674,342.75 222.341,343.75 223.5,345.5C 221.326,345.25 219.659,344.25 218.5,342.5 Z"/></g>
<g><path style="opacity:1" fill="#9f9f9f" d="M 405.5,343.5 C 404.713,345.104 403.38,345.771 401.5,345.5C 402.514,344.326 403.847,343.66 405.5,343.5 Z"/></g>
<g><path style="opacity:1" fill="#7e7e7e" d="M 223.5,345.5 C 227.084,345.975 230.417,346.975 233.5,348.5C 229.714,348.68 226.381,347.68 223.5,345.5 Z"/></g>
<g><path style="opacity:1" fill="#9b9b9b" d="M 399.5,346.5 C 397.898,348.074 395.898,348.741 393.5,348.5C 395.214,347.262 397.214,346.595 399.5,346.5 Z"/></g>
</svg>
